name Walk9.mot
datacolumns 19
datarows 10
range 1.06100000 1.07000000
endheader

                time	   L_ground_force_vx	   L_ground_force_vy	   L_ground_force_vz	   L_ground_force_px	   L_ground_force_py	   L_ground_force_pz	   R_ground_force_vx	   R_ground_force_vy	   R_ground_force_vz	   R_ground_force_px	   R_ground_force_py	   R_ground_force_pz	   L_ground_torque_x	   L_ground_torque_y	   L_ground_torque_z	   R_ground_torque_x	   R_ground_torque_y	   R_ground_torque_z	
          1.06100000	         -6.89379652	         57.92488181	         -4.84123425	          0.00127010	          0.00000000	          0.00176413	         -0.00000000	          0.00000000	          0.00000000	          0.00000000	          0.00000000	          0.00000000	          0.00000000	          0.11745023	          0.00000000	          0.00000000	         -0.00000000	          0.00000000	
          1.06200000	         -7.70872286	         63.14756509	         -5.18489584	         -0.01827350	          0.00000000	         -0.00036172	         -0.00000000	          0.00000000	         -0.00000000	          0.00000000	          0.00000000	          0.00000000	          0.00000000	          0.12350920	          0.00000000	          0.00000000	          0.00000000	          0.00000000	
          1.06300000	         -8.53984448	         68.53167189	         -5.53515104	         -0.03775471	          0.00000000	         -0.00248266	         -0.00000000	          0.00000000	         -0.00000000	          0.00000000	          0.00000000	          0.00000000	          0.00000000	          0.12978338	          0.00000000	          0.00000000	          0.00000000	          0.00000000	
          1.06400000	         -9.38578601	         74.07123513	         -5.89124371	         -0.05712112	          0.00000000	         -0.00459325	         -0.00000000	          0.00000000	         -0.00000000	          0.00000000	          0.00000000	          0.00000000	          0.00000000	          0.13626388	          0.00000000	          0.00000000	          0.00000000	          0.00000000	
          1.06500000	        -10.24503868	         79.75921701	         -6.25233128	         -0.07631972	          0.00000000	         -0.00668796	         -0.00000000	          0.00000000	         -0.00000000	          0.00000000	          0.00000000	          0.00000000	          0.00000000	          0.14293976	          0.00000000	          0.00000000	          0.00000000	          0.00000000	
          1.06600000	        -11.11595091	         85.58743007	         -6.61747980	         -0.09529708	          0.00000000	         -0.00876126	         -0.00000000	          0.00000000	         -0.00000000	          0.00000000	          0.00000000	          0.00000000	          0.00000000	          0.14979789	          0.00000000	          0.00000000	          0.00000000	          0.00000000	
          1.06700000	        -11.99673295	         91.54648668	         -6.98566106	         -0.11400082	          0.00000000	         -0.01080779	         -0.00000000	          0.00000000	         -0.00000000	          0.00000000	          0.00000000	          0.00000000	          0.00000000	          0.15682272	          0.00000000	          0.00000000	          0.00000000	          0.00000000	
          1.06800000	        -12.88548260	         97.62579807	         -7.35575244	         -0.13238203	          0.00000000	         -0.01282260	         -0.00000000	          0.00000000	         -0.00000000	          0.00000000	          0.00000000	          0.00000000	          0.00000000	          0.16399589	          0.00000000	          0.00000000	          0.00000000	          0.00000000	
          1.06900000	        -13.78022585	        103.81362285	         -7.72653799	         -0.15039676	          0.00000000	         -0.01480134	         -0.00000000	          0.00000000	         -0.00000000	          0.00000000	          0.00000000	          0.00000000	          0.00000000	          0.17129617	          0.00000000	          0.00000000	          0.00000000	          0.00000000	
          1.07000000	        -14.67896556	        110.09716045	         -8.09670920	         -0.16800615	          0.00000000	         -0.01674023	         -0.00000000	          0.00000000	         -0.00000000	          0.00000000	          0.00000000	          0.00000000	          0.00000000	          0.17869969	          0.00000000	          0.00000000	          0.00000000	          0.00000000	
